<svg xmlns="http://www.w3.org/2000/svg" width="340" height="200" viewBox="0 0 340 200"><style>* {
          font-family: 'Segoe UI', Ubuntu, "Helvetica Neue", Sans-Serif
        }</style><g class="gpsc-root"><rect x="1" y="1" rx="5" ry="5" height="99%" width="99.41176470588235%" stroke="#000000" stroke-width="1" fill="#2c2f33" stroke-opacity="0"></rect><text x="30" y="40" class="gpsc-item" style="--gpsc-i: 0; font-size: 22px; fill: #7289da;">Top Languages by Repo</text><g transform="translate(0,40)"><g transform="translate(40,0)"><rect y="18" width="14" height="14" class="gpsc-item" style="--gpsc-i: 0; stroke-width: 1px;" fill="#b07219" stroke="#2c2f33"></rect><rect y="43.2" width="14" height="14" class="gpsc-item" style="--gpsc-i: 1; stroke-width: 1px;" fill="#A97BFF" stroke="#2c2f33"></rect><rect y="68.4" width="14" height="14" class="gpsc-item" style="--gpsc-i: 2; stroke-width: 1px;" fill="#7355dd" stroke="#2c2f33"></rect><rect y="93.60000000000002" width="14" height="14" class="gpsc-item" style="--gpsc-i: 3; stroke-width: 1px;" fill="#e34c26" stroke="#2c2f33"></rect><rect y="118.80000000000001" width="14" height="14" class="gpsc-item" style="--gpsc-i: 4; stroke-width: 1px;" fill="#41b883" stroke="#2c2f33"></rect><text x="16.8" y="30" class="gpsc-item" style="--gpsc-i: 0; fill: #ffffff; font-size: 14px;">Java</text><text x="16.8" y="55.2" class="gpsc-item" style="--gpsc-i: 1; fill: #ffffff; font-size: 14px;">Kotlin</text><text x="16.8" y="80.4" class="gpsc-item" style="--gpsc-i: 2; fill: #ffffff; font-size: 14px;">C#</text><text x="16.8" y="105.60000000000002" class="gpsc-item" style="--gpsc-i: 3; fill: #ffffff; font-size: 14px;">HTML</text><text x="16.8" y="130.8" class="gpsc-item" style="--gpsc-i: 4; fill: #ffffff; font-size: 14px;">Vue</text></g><g transform="translate( 230, 80 )"><g class="arc" style="--gpsc-i: 0;"><path d="M3.67394039744206e-15,-60A60,60,0,0,1,40.760678957757555,44.029161369513055L23.777062725358576,25.68367746554928A35,35,0,0,0,2.1431318985078682e-15,-35Z" style="fill: #b07219; stroke-width: 2px;" stroke="#2c2f33"></path></g><g class="arc" style="--gpsc-i: 1;"><path d="M40.760678957757555,44.029161369513055A60,60,0,0,1,-58.06155400331097,15.12798554734253L-33.86923983526473,8.824658235949808A35,35,0,0,0,23.777062725358576,25.68367746554928Z" style="fill: #A97BFF; stroke-width: 2px;" stroke="#2c2f33"></path></g><g class="arc" style="--gpsc-i: 2;"><path d="M-58.06155400331097,15.12798554734253A60,60,0,0,1,-55.05114322399318,-23.861509376638143L-32.11316688066269,-13.919213803038916A35,35,0,0,0,-33.86923983526473,8.824658235949808Z" style="fill: #7355dd; stroke-width: 2px;" stroke="#2c2f33"></path></g><g class="arc" style="--gpsc-i: 3;"><path d="M-55.05114322399318,-23.861509376638143A60,60,0,0,1,-28.655568210287576,-52.714878455190956L-16.715748122667755,-30.75034576552806A35,35,0,0,0,-32.11316688066269,-13.919213803038916Z" style="fill: #e34c26; stroke-width: 2px;" stroke="#2c2f33"></path></g><g class="arc" style="--gpsc-i: 4;"><path d="M-28.655568210287576,-52.714878455190956A60,60,0,0,1,-1.1021821192326178e-14,-60L-6.429395695523604e-15,-35A35,35,0,0,0,-16.715748122667755,-30.75034576552806Z" style="fill: #41b883; stroke-width: 2px;" stroke="#2c2f33"></path></g></g></g></g></svg>