<svg xmlns="http://www.w3.org/2000/svg" width="340" height="200" viewBox="0 0 340 200"><style>* {
          font-family: 'Segoe UI', Ubuntu, "Helvetica Neue", Sans-Serif
        }</style><rect x="1" y="1" rx="5" ry="5" height="99%" width="99.41176470588235%" stroke="#000000" stroke-width="1" fill="#2c2f33" stroke-opacity="0"></rect><text x="30" y="40" style="font-size: 22px; fill: #7289da;">Top Languages by Commit</text><g transform="translate(0,40)"><g transform="translate(40,0)"><rect y="18" width="14" height="14" fill="#178600" stroke="#2c2f33" style="stroke-width: 1px;"></rect><rect y="43.2" width="14" height="14" fill="#b07219" stroke="#2c2f33" style="stroke-width: 1px;"></rect><rect y="68.4" width="14" height="14" fill="#e34c26" stroke="#2c2f33" style="stroke-width: 1px;"></rect><rect y="93.60000000000002" width="14" height="14" fill="#41b883" stroke="#2c2f33" style="stroke-width: 1px;"></rect><rect y="118.80000000000001" width="14" height="14" fill="#89e051" stroke="#2c2f33" style="stroke-width: 1px;"></rect><text x="16.8" y="30" style="fill: #ffffff; font-size: 14px;">C#</text><text x="16.8" y="55.2" style="fill: #ffffff; font-size: 14px;">Java</text><text x="16.8" y="80.4" style="fill: #ffffff; font-size: 14px;">HTML</text><text x="16.8" y="105.60000000000002" style="fill: #ffffff; font-size: 14px;">Vue</text><text x="16.8" y="130.8" style="fill: #ffffff; font-size: 14px;">Shell</text></g><g transform="translate( 230, 80 )"><g class="arc"><path d="M3.67394039744206e-15,-60A60,60,0,1,1,-49.7183964969606,33.58691783672648L-29.00239795656035,19.592368738090446A35,35,0,1,0,2.1431318985078682e-15,-35Z" style="fill: #178600; stroke-width: 2px;" stroke="#2c2f33"></path></g><g class="arc"><path d="M-49.7183964969606,33.58691783672648A60,60,0,0,1,-52.84771810236002,-28.409834412989625L-30.82783555971001,-16.57240340757728A35,35,0,0,0,-29.00239795656035,19.592368738090446Z" style="fill: #b07219; stroke-width: 2px;" stroke="#2c2f33"></path></g><g class="arc"><path d="M-52.84771810236002,-28.409834412989625A60,60,0,0,1,-29.637082413304803,-52.16937172352164L-17.288298074427804,-30.432133505387622A35,35,0,0,0,-30.82783555971001,-16.57240340757728Z" style="fill: #e34c26; stroke-width: 2px;" stroke="#2c2f33"></path></g><g class="arc"><path d="M-29.637082413304803,-52.16937172352164A60,60,0,0,1,-3.540536740969593,-59.89544723587799L-2.0653130988989292,-34.939010887595494A35,35,0,0,0,-17.288298074427804,-30.432133505387622Z" style="fill: #41b883; stroke-width: 2px;" stroke="#2c2f33"></path></g><g class="arc"><path d="M-3.540536740969593,-59.89544723587799A60,60,0,0,1,4.226888398968133e-14,-60L2.4656848993980778e-14,-35A35,35,0,0,0,-2.0653130988989292,-34.939010887595494Z" style="fill: #89e051; stroke-width: 2px;" stroke="#2c2f33"></path></g></g></g></svg>