<svg xmlns="http://www.w3.org/2000/svg" width="340" height="200" viewBox="0 0 340 200"><style>* {
          font-family: 'Segoe UI', Ubuntu, "Helvetica Neue", Sans-Serif
        }</style><g class="gpsc-root"><rect x="1" y="1" rx="5" ry="5" height="99%" width="99.41176470588235%" stroke="#000000" stroke-width="1" fill="#2c2f33" stroke-opacity="0"></rect><text x="30" y="40" class="gpsc-item" style="--gpsc-i: 0; font-size: 22px; fill: #7289da;">Top Languages by Commit</text><g transform="translate(0,40)"><g transform="translate(40,0)"><rect y="18" width="14" height="14" class="gpsc-item" style="--gpsc-i: 0; stroke-width: 1px;" fill="#A97BFF" stroke="#2c2f33"></rect><rect y="43.2" width="14" height="14" class="gpsc-item" style="--gpsc-i: 1; stroke-width: 1px;" fill="#b07219" stroke="#2c2f33"></rect><rect y="68.4" width="14" height="14" class="gpsc-item" style="--gpsc-i: 2; stroke-width: 1px;" fill="#41b883" stroke="#2c2f33"></rect><rect y="93.60000000000002" width="14" height="14" class="gpsc-item" style="--gpsc-i: 3; stroke-width: 1px;" fill="#7355dd" stroke="#2c2f33"></rect><rect y="118.80000000000001" width="14" height="14" class="gpsc-item" style="--gpsc-i: 4; stroke-width: 1px;" fill="#f1e05a" stroke="#2c2f33"></rect><text x="16.8" y="30" class="gpsc-item" style="--gpsc-i: 0; fill: #ffffff; font-size: 14px;">Kotlin</text><text x="16.8" y="55.2" class="gpsc-item" style="--gpsc-i: 1; fill: #ffffff; font-size: 14px;">Java</text><text x="16.8" y="80.4" class="gpsc-item" style="--gpsc-i: 2; fill: #ffffff; font-size: 14px;">Vue</text><text x="16.8" y="105.60000000000002" class="gpsc-item" style="--gpsc-i: 3; fill: #ffffff; font-size: 14px;">C#</text><text x="16.8" y="130.8" class="gpsc-item" style="--gpsc-i: 4; fill: #ffffff; font-size: 14px;">JavaScript</text></g><g transform="translate( 230, 80 )"><g class="arc" style="--gpsc-i: 0;"><path d="M3.67394039744206e-15,-60A60,60,0,0,1,58.43904459118947,13.59698743358132L34.08944267819386,7.931576002922437A35,35,0,0,0,2.1431318985078682e-15,-35Z" style="fill: #A97BFF; stroke-width: 2px;" stroke="#2c2f33"></path></g><g class="arc" style="--gpsc-i: 1;"><path d="M58.43904459118947,13.59698743358132A60,60,0,0,1,3.480751770389914,59.89895130228014L2.03043853272745,34.94105492633008A35,35,0,0,0,34.08944267819386,7.931576002922437Z" style="fill: #b07219; stroke-width: 2px;" stroke="#2c2f33"></path></g><g class="arc" style="--gpsc-i: 2;"><path d="M3.480751770389914,59.89895130228014A60,60,0,0,1,-56.14121566462209,21.169881995381832L-32.74904247102955,12.349097830639403A35,35,0,0,0,2.03043853272745,34.94105492633008Z" style="fill: #41b883; stroke-width: 2px;" stroke="#2c2f33"></path></g><g class="arc" style="--gpsc-i: 3;"><path d="M-56.14121566462209,21.169881995381832A60,60,0,0,1,-41.68636539867694,-43.153759278282934L-24.317046482561548,-25.173026245665042A35,35,0,0,0,-32.74904247102955,12.349097830639403Z" style="fill: #7355dd; stroke-width: 2px;" stroke="#2c2f33"></path></g><g class="arc" style="--gpsc-i: 4;"><path d="M-41.68636539867694,-43.153759278282934A60,60,0,0,1,-6.431252637433369e-14,-60L-3.7515640385027985e-14,-35A35,35,0,0,0,-24.317046482561548,-25.173026245665042Z" style="fill: #f1e05a; stroke-width: 2px;" stroke="#2c2f33"></path></g></g></g></g></svg>