<svg xmlns="http://www.w3.org/2000/svg" width="340" height="200" viewBox="0 0 340 200"><style>* {
          font-family: 'Segoe UI', Ubuntu, "Helvetica Neue", Sans-Serif
        }</style><g class="gpsc-root"><rect x="1" y="1" rx="5" ry="5" height="99%" width="99.41176470588235%" stroke="#000000" stroke-width="1" fill="#2c2f33" stroke-opacity="0"></rect><text x="30" y="40" class="gpsc-item" style="--gpsc-i: 0; font-size: 22px; fill: #7289da;">Top Languages by Commit</text><g transform="translate(0,40)"><g transform="translate(40,0)"><rect y="18" width="14" height="14" class="gpsc-item" style="--gpsc-i: 0; stroke-width: 1px;" fill="#A97BFF" stroke="#2c2f33"></rect><rect y="43.2" width="14" height="14" class="gpsc-item" style="--gpsc-i: 1; stroke-width: 1px;" fill="#b07219" stroke="#2c2f33"></rect><rect y="68.4" width="14" height="14" class="gpsc-item" style="--gpsc-i: 2; stroke-width: 1px;" fill="#41b883" stroke="#2c2f33"></rect><rect y="93.60000000000002" width="14" height="14" class="gpsc-item" style="--gpsc-i: 3; stroke-width: 1px;" fill="#7355dd" stroke="#2c2f33"></rect><rect y="118.80000000000001" width="14" height="14" class="gpsc-item" style="--gpsc-i: 4; stroke-width: 1px;" fill="#f1e05a" stroke="#2c2f33"></rect><text x="16.8" y="30" class="gpsc-item" style="--gpsc-i: 0; fill: #ffffff; font-size: 14px;">Kotlin</text><text x="16.8" y="55.2" class="gpsc-item" style="--gpsc-i: 1; fill: #ffffff; font-size: 14px;">Java</text><text x="16.8" y="80.4" class="gpsc-item" style="--gpsc-i: 2; fill: #ffffff; font-size: 14px;">Vue</text><text x="16.8" y="105.60000000000002" class="gpsc-item" style="--gpsc-i: 3; fill: #ffffff; font-size: 14px;">C#</text><text x="16.8" y="130.8" class="gpsc-item" style="--gpsc-i: 4; fill: #ffffff; font-size: 14px;">JavaScript</text></g><g transform="translate( 230, 80 )"><g class="arc" style="--gpsc-i: 0;"><path d="M3.67394039744206e-15,-60A60,60,0,0,1,57.744074944702476,16.29790811057003L33.68404371774311,9.507113064499185A35,35,0,0,0,2.1431318985078682e-15,-35Z" style="fill: #A97BFF; stroke-width: 2px;" stroke="#2c2f33"></path></g><g class="arc" style="--gpsc-i: 1;"><path d="M57.744074944702476,16.29790811057003A60,60,0,0,1,-1.2968306758791053,59.98598361449197L-0.7564845609294781,34.99182377512032A35,35,0,0,0,33.68404371774311,9.507113064499185Z" style="fill: #b07219; stroke-width: 2px;" stroke="#2c2f33"></path></g><g class="arc" style="--gpsc-i: 2;"><path d="M-1.2968306758791053,59.98598361449197A60,60,0,0,1,-58.12556387890716,14.880148647076187L-33.90657892936251,8.680086710794441A35,35,0,0,0,-0.7564845609294781,34.99182377512032Z" style="fill: #41b883; stroke-width: 2px;" stroke="#2c2f33"></path></g><g class="arc" style="--gpsc-i: 3;"><path d="M-58.12556387890716,14.880148647076187A60,60,0,0,1,-42.534413873505486,-42.318124207452115L-24.811741426211533,-24.685572454347067A35,35,0,0,0,-33.90657892936251,8.680086710794441Z" style="fill: #7355dd; stroke-width: 2px;" stroke="#2c2f33"></path></g><g class="arc" style="--gpsc-i: 4;"><path d="M-42.534413873505486,-42.318124207452115A60,60,0,0,1,-1.1021821192326178e-14,-60L-6.429395695523604e-15,-35A35,35,0,0,0,-24.811741426211533,-24.685572454347067Z" style="fill: #f1e05a; stroke-width: 2px;" stroke="#2c2f33"></path></g></g></g></g></svg>