<svg xmlns="http://www.w3.org/2000/svg" width="340" height="200" viewBox="0 0 340 200"><style>* {
          font-family: 'Segoe UI', Ubuntu, "Helvetica Neue", Sans-Serif
        }</style><g class="gpsc-root"><rect x="1" y="1" rx="5" ry="5" height="99%" width="99.41176470588235%" stroke="#000000" stroke-width="1" fill="#2c2f33" stroke-opacity="0"></rect><text x="30" y="40" class="gpsc-item" style="--gpsc-i: 0; font-size: 22px; fill: #7289da;">Top Languages by Commit</text><g transform="translate(0,40)"><g transform="translate(40,0)"><rect y="18" width="14" height="14" class="gpsc-item" style="--gpsc-i: 0; stroke-width: 1px;" fill="#A97BFF" stroke="#2c2f33"></rect><rect y="43.2" width="14" height="14" class="gpsc-item" style="--gpsc-i: 1; stroke-width: 1px;" fill="#b07219" stroke="#2c2f33"></rect><rect y="68.4" width="14" height="14" class="gpsc-item" style="--gpsc-i: 2; stroke-width: 1px;" fill="#41b883" stroke="#2c2f33"></rect><rect y="93.60000000000002" width="14" height="14" class="gpsc-item" style="--gpsc-i: 3; stroke-width: 1px;" fill="#178600" stroke="#2c2f33"></rect><rect y="118.80000000000001" width="14" height="14" class="gpsc-item" style="--gpsc-i: 4; stroke-width: 1px;" fill="#f1e05a" stroke="#2c2f33"></rect><text x="16.8" y="30" class="gpsc-item" style="--gpsc-i: 0; fill: #ffffff; font-size: 14px;">Kotlin</text><text x="16.8" y="55.2" class="gpsc-item" style="--gpsc-i: 1; fill: #ffffff; font-size: 14px;">Java</text><text x="16.8" y="80.4" class="gpsc-item" style="--gpsc-i: 2; fill: #ffffff; font-size: 14px;">Vue</text><text x="16.8" y="105.60000000000002" class="gpsc-item" style="--gpsc-i: 3; fill: #ffffff; font-size: 14px;">C#</text><text x="16.8" y="130.8" class="gpsc-item" style="--gpsc-i: 4; fill: #ffffff; font-size: 14px;">JavaScript</text></g><g transform="translate( 230, 80 )"><g class="arc" style="--gpsc-i: 0;"><path d="M3.67394039744206e-15,-60A60,60,0,0,1,56.77009758353118,19.420505151935327L33.11589025705986,11.328628005295608A35,35,0,0,0,2.1431318985078682e-15,-35Z" style="fill: #A97BFF; stroke-width: 2px;" stroke="#2c2f33"></path></g><g class="arc" style="--gpsc-i: 1;"><path d="M56.77009758353118,19.420505151935327A60,60,0,0,1,-6.887720036485694,59.60334984461019L-4.0178366879499885,34.76862074268928A35,35,0,0,0,33.11589025705986,11.328628005295608Z" style="fill: #b07219; stroke-width: 2px;" stroke="#2c2f33"></path></g><g class="arc" style="--gpsc-i: 2;"><path d="M-6.887720036485694,59.60334984461019A60,60,0,0,1,-59.34213047820168,8.860674370954316L-34.61624277895098,5.168726716390017A35,35,0,0,0,-4.0178366879499885,34.76862074268928Z" style="fill: #41b883; stroke-width: 2px;" stroke="#2c2f33"></path></g><g class="arc" style="--gpsc-i: 3;"><path d="M-59.34213047820168,8.860674370954316A60,60,0,0,1,-43.50771890989769,-41.31680524020862L-25.37950269744032,-24.101469723455033A35,35,0,0,0,-34.61624277895098,5.168726716390017Z" style="fill: #178600; stroke-width: 2px;" stroke="#2c2f33"></path></g><g class="arc" style="--gpsc-i: 4;"><path d="M-43.50771890989769,-41.31680524020862A60,60,0,0,1,-6.431252637433369e-14,-60L-3.7515640385027985e-14,-35A35,35,0,0,0,-25.37950269744032,-24.101469723455033Z" style="fill: #f1e05a; stroke-width: 2px;" stroke="#2c2f33"></path></g></g></g></g></svg>