<svg xmlns="http://www.w3.org/2000/svg" width="340" height="200" viewBox="0 0 340 200"><style>* {
          font-family: 'Segoe UI', Ubuntu, "Helvetica Neue", Sans-Serif
        }</style><rect x="1" y="1" rx="5" ry="5" height="99%" width="99.41176470588235%" stroke="#000000" stroke-width="1" fill="#2c2f33" stroke-opacity="0"></rect><text x="30" y="40" style="font-size: 22px; fill: #7289da;">Top Languages by Commit</text><g transform="translate(0,40)"><g transform="translate(40,0)"><rect y="18" width="14" height="14" fill="#178600" stroke="#2c2f33" style="stroke-width: 1px;"></rect><rect y="43.2" width="14" height="14" fill="#41b883" stroke="#2c2f33" style="stroke-width: 1px;"></rect><rect y="68.4" width="14" height="14" fill="#b07219" stroke="#2c2f33" style="stroke-width: 1px;"></rect><rect y="93.60000000000002" width="14" height="14" fill="#e34c26" stroke="#2c2f33" style="stroke-width: 1px;"></rect><rect y="118.80000000000001" width="14" height="14" fill="#89e051" stroke="#2c2f33" style="stroke-width: 1px;"></rect><text x="16.8" y="30" style="fill: #ffffff; font-size: 14px;">C#</text><text x="16.8" y="55.2" style="fill: #ffffff; font-size: 14px;">Vue</text><text x="16.8" y="80.4" style="fill: #ffffff; font-size: 14px;">Java</text><text x="16.8" y="105.60000000000002" style="fill: #ffffff; font-size: 14px;">HTML</text><text x="16.8" y="130.8" style="fill: #ffffff; font-size: 14px;">Shell</text></g><g transform="translate( 230, 80 )"><g class="arc"><path d="M3.67394039744206e-15,-60A60,60,0,1,1,-34.683665774973406,48.9596091529532L-20.23213836873449,28.559772005889364A35,35,0,1,0,2.1431318985078682e-15,-35Z" style="fill: #178600; stroke-width: 2px;" stroke="#2c2f33"></path></g><g class="arc"><path d="M-34.683665774973406,48.9596091529532A60,60,0,0,1,-59.944834159191004,-2.5723253346122568L-34.96781992619475,-1.5005231118571498A35,35,0,0,0,-20.23213836873449,28.559772005889364Z" style="fill: #41b883; stroke-width: 2px;" stroke="#2c2f33"></path></g><g class="arc"><path d="M-59.944834159191004,-2.5723253346122568A60,60,0,0,1,-36.13279201716496,-47.90011838236206L-21.077462010012894,-27.941735723044534A35,35,0,0,0,-34.96781992619475,-1.5005231118571498Z" style="fill: #b07219; stroke-width: 2px;" stroke="#2c2f33"></path></g><g class="arc"><path d="M-36.13279201716496,-47.90011838236206A60,60,0,0,1,-2.871216320470595,-59.931261598944026L-1.6748761869411803,-34.959902599384016A35,35,0,0,0,-21.077462010012894,-27.941735723044534Z" style="fill: #e34c26; stroke-width: 2px;" stroke="#2c2f33"></path></g><g class="arc"><path d="M-2.871216320470595,-59.931261598944026A60,60,0,0,1,-6.431252637433369e-14,-60L-3.7515640385027985e-14,-35A35,35,0,0,0,-1.6748761869411803,-34.959902599384016Z" style="fill: #89e051; stroke-width: 2px;" stroke="#2c2f33"></path></g></g></g></svg>