<svg xmlns="http://www.w3.org/2000/svg" width="340" height="200" viewBox="0 0 340 200"><style>* {
          font-family: 'Segoe UI', Ubuntu, "Helvetica Neue", Sans-Serif
        }</style><rect x="1" y="1" rx="5" ry="5" height="99%" width="99.41176470588235%" stroke="#000000" stroke-width="1" fill="#2c2f33" stroke-opacity="0"></rect><text x="30" y="40" style="font-size: 22px; fill: #7289da;">Top Languages by Commit</text><g transform="translate(0,40)"><g transform="translate(40,0)"><rect y="18" width="14" height="14" fill="#178600" stroke="#2c2f33" style="stroke-width: 1px;"></rect><rect y="43.2" width="14" height="14" fill="#b07219" stroke="#2c2f33" style="stroke-width: 1px;"></rect><rect y="68.4" width="14" height="14" fill="#e34c26" stroke="#2c2f33" style="stroke-width: 1px;"></rect><rect y="93.60000000000002" width="14" height="14" fill="#41b883" stroke="#2c2f33" style="stroke-width: 1px;"></rect><rect y="118.80000000000001" width="14" height="14" fill="#89e051" stroke="#2c2f33" style="stroke-width: 1px;"></rect><text x="16.8" y="30" style="fill: #ffffff; font-size: 14px;">C#</text><text x="16.8" y="55.2" style="fill: #ffffff; font-size: 14px;">Java</text><text x="16.8" y="80.4" style="fill: #ffffff; font-size: 14px;">HTML</text><text x="16.8" y="105.60000000000002" style="fill: #ffffff; font-size: 14px;">Vue</text><text x="16.8" y="130.8" style="fill: #ffffff; font-size: 14px;">Shell</text></g><g transform="translate( 230, 80 )"><g class="arc"><path d="M3.67394039744206e-15,-60A60,60,0,1,1,-50.992252855328005,31.619458387807555L-29.74548083227467,18.444684059554405A35,35,0,1,0,2.1431318985078682e-15,-35Z" style="fill: #178600; stroke-width: 2px;" stroke="#2c2f33"></path></g><g class="arc"><path d="M-50.992252855328005,31.619458387807555A60,60,0,0,1,-51.380941815095355,-30.983847698337684L-29.972216058805625,-18.07391115736365A35,35,0,0,0,-29.74548083227467,18.444684059554405Z" style="fill: #b07219; stroke-width: 2px;" stroke="#2c2f33"></path></g><g class="arc"><path d="M-51.380941815095355,-30.983847698337684A60,60,0,0,1,-28.852975388530087,-52.60708898265401L-16.830902309975883,-30.68746857321484A35,35,0,0,0,-29.972216058805625,-18.07391115736365Z" style="fill: #e34c26; stroke-width: 2px;" stroke="#2c2f33"></path></g><g class="arc"><path d="M-28.852975388530087,-52.60708898265401A60,60,0,0,1,-3.574083265838114,-59.893454807757216L-2.084881905072233,-34.93784863785837A35,35,0,0,0,-16.830902309975883,-30.68746857321484Z" style="fill: #41b883; stroke-width: 2px;" stroke="#2c2f33"></path></g><g class="arc"><path d="M-3.574083265838114,-59.893454807757216A60,60,0,0,1,-6.431252637433369e-14,-60L-3.7515640385027985e-14,-35A35,35,0,0,0,-2.084881905072233,-34.93784863785837Z" style="fill: #89e051; stroke-width: 2px;" stroke="#2c2f33"></path></g></g></g></svg>