<svg xmlns="http://www.w3.org/2000/svg" width="340" height="200" viewBox="0 0 340 200"><style>* {
          font-family: 'Segoe UI', Ubuntu, "Helvetica Neue", Sans-Serif
        }</style><rect x="1" y="1" rx="5" ry="5" height="99%" width="99.41176470588235%" stroke="#000000" stroke-width="1" fill="#2c2f33" stroke-opacity="0"></rect><text x="30" y="40" style="font-size: 22px; fill: #7289da;">Top Languages by Commit</text><g transform="translate(0,40)"><g transform="translate(40,0)"><rect y="18" width="14" height="14" fill="#178600" stroke="#2c2f33" style="stroke-width: 1px;"></rect><rect y="43.2" width="14" height="14" fill="#b07219" stroke="#2c2f33" style="stroke-width: 1px;"></rect><rect y="68.4" width="14" height="14" fill="#e34c26" stroke="#2c2f33" style="stroke-width: 1px;"></rect><rect y="93.60000000000002" width="14" height="14" fill="#41b883" stroke="#2c2f33" style="stroke-width: 1px;"></rect><rect y="118.80000000000001" width="14" height="14" fill="#89e051" stroke="#2c2f33" style="stroke-width: 1px;"></rect><text x="16.8" y="30" style="fill: #ffffff; font-size: 14px;">C#</text><text x="16.8" y="55.2" style="fill: #ffffff; font-size: 14px;">Java</text><text x="16.8" y="80.4" style="fill: #ffffff; font-size: 14px;">HTML</text><text x="16.8" y="105.60000000000002" style="fill: #ffffff; font-size: 14px;">Vue</text><text x="16.8" y="130.8" style="fill: #ffffff; font-size: 14px;">Shell</text></g><g transform="translate( 230, 80 )"><g class="arc"><path d="M3.67394039744206e-15,-60A60,60,0,1,1,-51.199305694697486,31.283080033476843L-29.8662616552402,18.248463352861492A35,35,0,1,0,2.1431318985078682e-15,-35Z" style="fill: #178600; stroke-width: 2px;" stroke="#2c2f33"></path></g><g class="arc"><path d="M-51.199305694697486,31.283080033476843A60,60,0,0,1,-51.12133369212993,-31.41033653971095L-29.820777987075793,-18.322696314831386A35,35,0,0,0,-29.8662616552402,18.248463352861492Z" style="fill: #b07219; stroke-width: 2px;" stroke="#2c2f33"></path></g><g class="arc"><path d="M-51.12133369212993,-31.41033653971095A60,60,0,0,1,-28.370143247436804,-52.86903604303672L-16.549250227671468,-30.840271025104755A35,35,0,0,0,-29.820777987075793,-18.322696314831386Z" style="fill: #e34c26; stroke-width: 2px;" stroke="#2c2f33"></path></g><g class="arc"><path d="M-28.370143247436804,-52.86903604303672A60,60,0,0,1,-3.5797362188472333,-59.89311720559778L-2.0881794609942195,-34.937651703265374A35,35,0,0,0,-16.549250227671468,-30.840271025104755Z" style="fill: #41b883; stroke-width: 2px;" stroke="#2c2f33"></path></g><g class="arc"><path d="M-3.5797362188472333,-59.89311720559778A60,60,0,0,1,-1.1021821192326178e-14,-60L-6.429395695523604e-15,-35A35,35,0,0,0,-2.0881794609942195,-34.937651703265374Z" style="fill: #89e051; stroke-width: 2px;" stroke="#2c2f33"></path></g></g></g></svg>